<mxfile host="app.diagrams.net" modified="2023-05-29T19:22:02.538Z" agent="Mozilla/5.0 (Windows NT 10.0; Win64; x64) AppleWebKit/537.36 (KHTML, like Gecko) Chrome/113.0.0.0 Safari/537.36" version="21.3.5" etag="IHMfE9Dt6IxdhZcNUgMK" type="github">
  <diagram name="Page-1" id="mVwlUt2cTKFrMsuI-69g">
    <mxGraphModel>
      <root>
        <mxCell id="0" />
        <mxCell id="1" parent="0" />
      </root>
    </mxGraphModel>
  </diagram>
</mxfile>
